# xmcd CD database file
#
# Track frame offsets:
#	183
#	13065
#	27298
#	40163
#	53495
#	66800
#	81185
#	94195
#	107798
#	122785
#	136985
#	148893
#	162048
#	176368
#	190650
#	204978
#	218073
#	233050
#
# Disc length: 3271 seconds
#
# Revision: 4
# Processed by: cddbd v1.5.1PL2 Copyright (c) Steve Scherf et al.
# Submitted via: CDex 1.51
#
DISCID=f00cc512
DTITLE=Various Artist - Born Under A Bad Sign
DYEAR=1996
DGENRE=Blues
TTITLE0=Lonnie Johnson - Mr Johnson's Swing
TTITLE1=Sleepy John Estes - I Ain't Gonna Be Worried No More
TTITLE2=Brownie McGhee - Picking My Tomatoes
TTITLE3=Leadbelly - Good Morning Blues
TTITLE4=Big Bill Broonzy - Blue Cow Blues
TTITLE5=Blind Willie McTell - Broke Down Engine
TTITLE6=Champion Jack Dupree - Gamblin' Man Blues
TTITLE7=Tampa Red - You Can't Get That Stuff No More
TTITLE8=Blind Boy Fuller - Baby You Gotta Change Your Mind
TTITLE9=Blind Willie Johnson - I Know His Blood Can Make Me Whole
TTITLE10=Robert Johnson - Phonographic Blues
TTITLE11=Arthur Crudup - Gonna Follow My Baby
TTITLE12=Barbecue Bob - She's Coming Back Some Cold Rainy Day
TTITLE13=Leroy Carr - Midnight Hour Blues
TTITLE14=Sonny Boy Williamson - Blue Bird Blues
TTITLE15=Bukka White - Pinebluff Arkansas
TTITLE16=Joe Turner - Rocks In My Head
TTITLE17=Roosevelt Sykes - 15 Cents A Day
EXTD=YEAR: 1996
EXTT0=
EXTT1=
EXTT2=
EXTT3=
EXTT4=
EXTT5=
EXTT6=
EXTT7=
EXTT8=
EXTT9=
EXTT10=
EXTT11=
EXTT12=
EXTT13=
EXTT14=
EXTT15=
EXTT16=
EXTT17=
PLAYORDER=
